{
  "accessors": [
    {
      "bufferView": 2,
      "componentType": 5126,
      "count": 14787,
      "max": [
        1.2949999570846558,
        0.8749999403953552,
        0.7999999523162842
      ],
      "min": [
        -1.2949999570846558,
        -0.8750000596046448,
        5.090122545681197e-09
      ],
      "type": "VEC3"
    },
    {
      "bufferView": 2,
      "byteOffset": 177444,
      "componentType": 5126,
      "count": 14787,
      "type": "VEC3"
    },
    {
      "bufferView": 3,
      "componentType": 5126,
      "count": 14787,
      "type": "VEC4"
    },
    {
      "bufferView": 1,
      "componentType": 5126,
      "count": 14787,
      "type": "VEC2"
    },
    {
      "bufferView": 0,
      "componentType": 5125,
      "count": 80388,
      "type": "SCALAR"
    }
  ],
  "asset": {
    "generator": "fab-model-conversion",
    "version": "2.0"
  },
  "bufferViews": [
    {
      "buffer": 0,
      "byteLength": 321552,
      "target": 34963
    },
    {
      "buffer": 0,
      "byteLength": 118296,
      "byteOffset": 321552,
      "byteStride": 8,
      "target": 34962
    },
    {
      "buffer": 0,
      "byteLength": 354888,
      "byteOffset": 439848,
      "byteStride": 12,
      "target": 34962
    },
    {
      "buffer": 0,
      "byteLength": 236592,
      "byteOffset": 794736,
      "byteStride": 16,
      "target": 34962
    }
  ],
  "buffers": [
    {
      "byteLength": 1031328,
      "uri": "scene.bin"
    }
  ],
  "images": [
    {
      "uri": "textures/MI_0_0_SOFSMN029GRY-UK_baseColor.png"
    },
    {
      "uri": "textures/MI_0_0_SOFSMN029GRY-UK_metallicRoughness.png"
    },
    {
      "uri": "textures/MI_0_0_SOFSMN029GRY-UK_normal.png"
    }
  ],
  "materials": [
    {
      "doubleSided": true,
      "name": "MI_0_0_SOFSMN029GRY-UK",
      "normalTexture": {
        "index": 2
      },
      "occlusionTexture": {
        "index": 1
      },
      "pbrMetallicRoughness": {
        "baseColorTexture": {
          "index": 0
        },
        "metallicRoughnessTexture": {
          "index": 1
        }
      }
    }
  ],
  "meshes": [
    {
      "name": "sofa_MI_0_0_SOFSMN029GRY-UK_0",
      "primitives": [
        {
          "attributes": {
            "NORMAL": 1,
            "POSITION": 0,
            "TANGENT": 2,
            "TEXCOORD_0": 3
          },
          "indices": 4,
          "material": 0,
          "mode": 4
        }
      ]
    }
  ],
  "nodes": [
    {
      "children": [
        1
      ],
      "matrix": [
        1.0,
        0.0,
        0.0,
        0.0,
        0.0,
        2.220446049250313e-16,
        -1.0,
        0.0,
        0.0,
        1.0,
        2.220446049250313e-16,
        0.0,
        0.0,
        0.0,
        0.0,
        1.0
      ],
      "name": "Sketchfab_model"
    },
    {
      "children": [
        2
      ],
      "matrix": [
        1.0,
        0.0,
        0.0,
        0.0,
        0.0,
        0.0,
        1.0,
        0.0,
        0.0,
        -1.0,
        0.0,
        0.0,
        0.0,
        0.0,
        0.0,
        1.0
      ],
      "name": "sofa.fbx"
    },
    {
      "children": [
        3
      ],
      "name": "RootNode"
    },
    {
      "children": [
        4
      ],
      "matrix": [
        1.0,
        0.0,
        0.0,
        0.0,
        0.0,
        2.220446049250313e-16,
        -1.0,
        0.0,
        0.0,
        1.0,
        2.220446049250313e-16,
        0.0,
        0.0,
        0.0,
        0.0,
        1.0
      ],
      "name": "sofa"
    },
    {
      "mesh": 0,
      "name": "sofa_MI_0_0_SOFSMN029GRY-UK_0"
    }
  ],
  "samplers": [
    {
      "magFilter": 9729,
      "minFilter": 9987,
      "wrapS": 10497,
      "wrapT": 10497
    }
  ],
  "scene": 0,
  "scenes": [
    {
      "name": "Sketchfab_Scene",
      "nodes": [
        0
      ]
    }
  ],
  "textures": [
    {
      "sampler": 0,
      "source": 0
    },
    {
      "sampler": 0,
      "source": 1
    },
    {
      "sampler": 0,
      "source": 2
    }
  ]
}
